{
	"asset":{
		"generator":"Khronos glTF Blender I/O v3.6.27",
		"version":"2.0"
	},
	"scene":0,
	"scenes":[
		{
			"name":"Scene",
			"nodes":[
				0,
				1
			]
		}
	],
	"nodes":[
		{
			"mesh":0,
			"name":"Sphere",
			"scale":[
				1.1471295356750488,
				1.1471295356750488,
				1.1471295356750488
			]
		},
		{
			"mesh":1,
			"name":"Sphere.001",
			"scale":[
				175.35806274414062,
				175.5496063232422,
				174.41900634765625
			]
		}
	],
	"materials":[
		{
			"doubleSided":true,
			"name":"Material.001",
			"pbrMetallicRoughness":{
				"metallicFactor":0,
				"roughnessFactor":0.996999979019165
			}
		},
		{
			"alphaMode":"BLEND",
			"doubleSided":true,
			"emissiveFactor":[
				0.04681161418557167,
				0.003996402490884066,
				0.03594326972961426
			],
			"name":"Material.002",
			"pbrMetallicRoughness":{
				"baseColorFactor":[
					0.8000000715255737,
					0.012966236099600792,
					0.5654350519180298,
					0.15000000596046448
				],
				"metallicFactor":0,
				"roughnessFactor":0.5
			}
		}
	],
	"meshes":[
		{
			"name":"Sphere",
			"primitives":[
				{
					"attributes":{
						"POSITION":0,
						"NORMAL":1,
						"TEXCOORD_0":2
					},
					"indices":3,
					"material":0
				}
			]
		},
		{
			"name":"Sphere.001",
			"primitives":[
				{
					"attributes":{
						"POSITION":4,
						"NORMAL":5,
						"TEXCOORD_0":6
					},
					"indices":7,
					"material":1
				}
			]
		}
	],
	"accessors":[
		{
			"bufferView":0,
			"componentType":5126,
			"count":2143,
			"max":[
				149.99998474121094,
				150,
				149.99996948242188
			],
			"min":[
				-149.9999542236328,
				-150,
				-150
			],
			"type":"VEC3"
		},
		{
			"bufferView":1,
			"componentType":5126,
			"count":2143,
			"type":"VEC3"
		},
		{
			"bufferView":2,
			"componentType":5126,
			"count":2143,
			"type":"VEC2"
		},
		{
			"bufferView":3,
			"componentType":5123,
			"count":11904,
			"type":"SCALAR"
		},
		{
			"bufferView":4,
			"componentType":5126,
			"count":559,
			"max":[
				0.9999997019767761,
				1,
				0.9999993443489075
			],
			"min":[
				-0.9999990463256836,
				-1,
				-1
			],
			"type":"VEC3"
		},
		{
			"bufferView":5,
			"componentType":5126,
			"count":559,
			"type":"VEC3"
		},
		{
			"bufferView":6,
			"componentType":5126,
			"count":559,
			"type":"VEC2"
		},
		{
			"bufferView":7,
			"componentType":5123,
			"count":2880,
			"type":"SCALAR"
		}
	],
	"bufferViews":[
		{
			"buffer":0,
			"byteLength":25716,
			"byteOffset":0,
			"target":34962
		},
		{
			"buffer":0,
			"byteLength":25716,
			"byteOffset":25716,
			"target":34962
		},
		{
			"buffer":0,
			"byteLength":17144,
			"byteOffset":51432,
			"target":34962
		},
		{
			"buffer":0,
			"byteLength":23808,
			"byteOffset":68576,
			"target":34963
		},
		{
			"buffer":0,
			"byteLength":6708,
			"byteOffset":92384,
			"target":34962
		},
		{
			"buffer":0,
			"byteLength":6708,
			"byteOffset":99092,
			"target":34962
		},
		{
			"buffer":0,
			"byteLength":4472,
			"byteOffset":105800,
			"target":34962
		},
		{
			"buffer":0,
			"byteLength":5760,
			"byteOffset":110272,
			"target":34963
		}
	],
	"buffers":[
		{
			"byteLength":116032,
			"uri":"data:application/octet-stream;base64,"
		}
	]
}
